PathFileType	4	(X/Y/Z)	C:/Users/opensim2020/Desktop/walking_exp_matlab/subject06_walking12_straigt_03.trc	
DataRate	CameraRate	NumFrames	NumMarkers	Units	OrigDataRate	OrigDataStartFrame	OrigNumFrames	
100.00	100.00	6	48	mm	100.00	2233	184	
Frame#	Time	LFHD			RFHD			LBHD			RBHD			C7			T10			CLAV			STRN			RBAK			LSHO			LUPA			LELB			LFRM			LWRA			LWRB			LFIN			RSHO			RUPA			RELB			RFRM			RWRA			RWRB			RFIN			LASI			RASI			LPSI			RPSI			LTHI			LKNE			LTIB			LANK			LHEE			LTOE			RTHI			RKNE			RTIB			RANK			RHEE			RTOE			*39			*40			*41			*42			*43			*44			*45			*46			*47			
		X1	Y1	Z1	X2	Y2	Z2	X3	Y3	Z3	X4	Y4	Z4	X5	Y5	Z5	X6	Y6	Z6	X7	Y7	Z7	X8	Y8	Z8	X9	Y9	Z9	X10	Y10	Z10	X11	Y11	Z11	X12	Y12	Z12	X13	Y13	Z13	X14	Y14	Z14	X15	Y15	Z15	X16	Y16	Z16	X17	Y17	Z17	X18	Y18	Z18	X19	Y19	Z19	X20	Y20	Z20	X21	Y21	Z21	X22	Y22	Z22	X23	Y23	Z23	X24	Y24	Z24	X25	Y25	Z25	X26	Y26	Z26	X27	Y27	Z27	X28	Y28	Z28	X29	Y29	Z29	X30	Y30	Z30	X31	Y31	Z31	X32	Y32	Z32	X33	Y33	Z33	X34	Y34	Z34	X35	Y35	Z35	X36	Y36	Z36	X37	Y37	Z37	X38	Y38	Z38	X39	Y39	Z39	X40	Y40	Z40	X41	Y41	Z41	X42	Y42	Z42	X43	Y43	Z43	X44	Y44	Z44	X45	Y45	Z45	X46	Y46	Z46	X47	Y47	Z47	X48	Y48	Z48	

162	1.610	-1057.07837	803.43274	1665.31335	-926.72906	790.08154	1651.66699	-1072.44128	668.64575	1618.62585	-943.82684	656.91895	1610.04065	-1011.66010	656.00830	1453.79456	-1004.03046	628.29163	1123.28760	-1012.41962	767.87177	1378.42188	-1024.32190	812.18976	1204.59924	-932.15985	588.43390	1278.78137	-1173.16199	709.07361	1410.66675	-1244.74878	723.25067	1208.35449	-1258.58215	736.53375	1096.68774	-1281.23083	803.62689	961.97168	-1239.98718	901.43933	877.20026	-1275.45374	846.33209	850.51715	-1278.04565	914.35126	791.38354	-849.74615	724.29669	1406.81311	-764.60071	687.70654	1206.81873	-753.77216	698.53101	1084.45251	-739.82257	717.93390	965.25140	-777.75769	778.63367	828.33423	-734.00970	727.88068	827.49042	-735.63818	767.85065	752.90961	-1121.37268	801.21399	961.68396	-901.98724	816.45746	975.96143	-1082.57715	643.88086	985.90033	-915.08441	661.62903	997.76691	-1174.54382	758.12848	641.80231	-1160.72839	781.46094	480.39749	-1147.90747	592.33606	323.92184	-1109.11426	464.26230	210.13158	-1058.91211	431.98636	227.73839	-1117.23450	525.36823	77.35396	-842.39661	789.36304	641.69171	-869.91174	804.31451	517.90070	-876.97162	769.75238	251.42683	-929.33002	762.12134	67.07885	-976.38538	724.64471	43.73158	-923.32458	914.95740	34.74789	-1007.29321	700.26349	1708.31091																								 
163	1.620	-1056.45361	813.20758	1665.95715	-926.10504	799.67645	1652.31299	-1071.94531	678.36591	1619.22083	-943.36731	666.54022	1610.62219	-1010.96973	665.77930	1454.54541	-1002.66327	636.94690	1124.32483	-1011.86884	777.30237	1378.98694	-1023.56689	821.23834	1205.16064	-930.32800	597.79089	1280.21887	-1172.48145	717.95160	1411.04028	-1243.42847	730.35907	1208.31970	-1256.55676	741.84674	1096.41516	-1279.23047	805.16321	959.67987	-1238.55701	900.14093	871.66479	-1273.59778	843.83270	846.73193	-1276.81030	909.95905	785.58081	-849.05774	734.58307	1407.61890	-763.37811	699.96265	1207.51270	-752.22211	712.38892	1085.31201	-738.25867	733.92456	966.50098	-776.09686	797.59827	830.81842	-732.49121	746.84180	828.98914	-734.47150	788.57629	755.25140	-1120.09607	810.46417	962.78558	-900.70453	824.63513	976.44324	-1081.99805	652.59064	986.80542	-914.31207	669.45490	998.34613	-1174.02087	771.93866	643.63757	-1160.12952	798.16473	482.48105	-1147.53223	610.76001	324.20303	-1108.84656	484.13989	208.98367	-1058.38550	451.28134	225.55931	-1118.37659	548.15656	78.07636	-842.16760	795.12976	641.54413	-869.61816	808.79193	517.49329	-877.26361	770.89044	251.46591	-929.58630	762.17010	67.23185	-977.09711	724.25903	44.09774	-923.18024	914.79492	34.54954	-1006.77521	709.89130	1708.90063																								 
164	1.630	-1055.84558	822.91327	1666.51636	-925.53833	809.24609	1652.83252	-1071.51404	688.09326	1619.78088	-942.96637	676.16187	1611.14746	-1009.97180	675.28125	1455.36414	-1001.48529	645.78943	1125.27136	-1011.30579	786.68921	1379.50647	-1022.72955	830.35376	1205.61230	-928.74847	607.16199	1281.48267	-1171.79822	726.83899	1411.48120	-1242.18750	737.65863	1208.46289	-1254.67041	747.03870	1096.23560	-1277.28088	806.31073	957.62683	-1237.09973	898.39600	866.43298	-1271.64685	841.14471	843.36646	-1275.57935	905.18719	780.21320	-848.43829	744.74298	1408.38745	-762.19318	712.28687	1208.17322	-750.78265	726.15259	1086.11450	-736.70093	750.04999	967.87415	-774.73914	816.29297	833.65845	-730.95874	765.96313	830.64331	-733.08594	809.23267	757.86560	-1118.76465	819.77277	963.87628	-899.35052	832.69861	976.80493	-1081.53308	661.64325	987.58453	-913.69226	677.60583	998.79535	-1173.61646	785.55096	645.19067	-1159.50586	814.53461	484.59235	-1147.17896	629.45026	323.81213	-1108.71411	504.68600	206.63777	-1058.03455	471.15646	222.14633	-1119.51855	572.62946	78.35930	-841.98810	800.70313	641.30060	-869.28082	813.12701	517.15063	-877.56897	771.99164	251.51094	-929.91821	762.21918	67.39955	-976.75220	724.12634	43.97027	-923.17401	914.78918	34.42311	-1006.24500	719.53113	1709.45105																								 
165	1.640	-1055.25940	832.65466	1667.08398	-924.98352	818.84583	1653.28430	-1071.11182	697.86078	1620.32129	-942.56842	685.75580	1611.62744	-1009.41058	683.29926	1456.62512	-1000.41797	654.61420	1125.95093	-1010.73413	796.05536	1379.94006	-1021.92188	839.33197	1205.99219	-927.36475	616.40863	1282.83069	-1171.11707	735.79187	1411.93518	-1240.92737	744.72357	1208.59619	-1252.62085	751.99664	1096.19141	-1275.33459	807.03882	955.70099	-1235.64514	896.35455	861.53009	-1269.83240	838.16602	840.42731	-1274.31409	900.14716	775.28076	-847.90228	754.89911	1409.09985	-760.82477	725.08075	1208.74182	-749.33423	740.01593	1086.93469	-735.09149	766.19183	969.22931	-773.06958	835.46875	836.60516	-729.05273	785.05322	832.55884	-731.52673	829.77722	760.48810	-1117.10364	828.79291	964.87445	-897.85748	840.52209	976.94629	-1081.05505	670.51874	988.32159	-913.05676	685.40979	999.14063	-1173.09692	799.04358	646.70404	-1158.82922	830.60461	486.68188	-1147.04028	648.38763	322.91501	-1108.75293	525.94702	203.24211	-1057.96375	492.10837	217.46605	-1120.23743	597.74561	77.65212	-841.79590	805.96222	641.12952	-868.86676	817.30798	516.74005	-877.77448	773.24078	251.58266	-930.20624	762.23828	67.52039	-977.02435	724.12268	44.06802	-923.13757	914.78351	34.29072	-1005.77661	729.24402	1709.95483																								 
166	1.650	-1054.72400	842.37250	1667.48938	-924.42755	828.43982	1653.70874	-1070.68689	707.59625	1620.76196	-942.14325	695.40118	1612.05298	-1008.67676	693.26215	1456.96826	-999.44977	663.27130	1126.69983	-1010.27606	805.42609	1380.31958	-1021.08044	848.24200	1206.26941	-926.12390	625.59589	1284.01331	-1170.51282	744.80389	1412.32910	-1239.99670	751.82343	1208.90564	-1250.71887	756.94623	1096.19836	-1273.54175	807.53589	954.11548	-1234.23083	894.08948	856.92047	-1268.06689	834.95184	837.89008	-1273.00903	894.76111	770.66852	-847.37396	764.93970	1409.66223	-760.05951	736.91193	1209.33044	-747.94049	753.79596	1087.75000	-733.53876	782.37762	970.65411	-771.67847	854.15979	839.51007	-727.34186	804.24652	834.46710	-729.84564	850.47137	763.39130	-1115.94958	838.32098	965.97571	-896.26697	848.73041	977.25775	-1080.72754	679.57556	989.04419	-912.58685	693.95239	999.29346	-1172.78174	812.19830	648.20721	-1158.05542	846.39709	488.82480	-1146.69897	668.07898	321.44061	-1108.92676	547.92993	198.99089	-1058.10132	513.27155	212.11746	-1120.91418	624.16241	76.47646	-841.55743	811.12280	640.97723	-868.41461	821.62170	516.48260	-877.82190	774.66992	251.66263	-930.41199	762.32343	67.65845	-977.19543	724.10858	44.16282	-923.12067	914.78186	34.20205	-1005.33429	738.94867	1710.41626																								 
167	1.660	-1054.21960	852.15161	1667.83984	-923.95502	838.08600	1654.03210	-1070.27686	717.32349	1621.22241	-941.81525	704.98285	1612.48755	-1008.06335	702.84467	1457.54834	-998.56262	671.94519	1127.31274	-1009.76599	814.75757	1380.65186	-1020.30994	857.31543	1206.57739	-925.10651	634.81628	1285.00073	-1170.00427	753.83899	1412.70337	-1238.65991	758.33099	1208.88330	-1249.00012	761.83844	1096.28186	-1271.61169	808.15710	952.64355	-1232.81177	891.65521	852.63495	-1266.26501	831.70563	835.59827	-1271.55225	888.90906	766.21454	-846.95868	774.90265	1410.21436	-758.84534	749.60876	1209.83691	-746.56232	767.68787	1088.54480	-731.99225	798.59027	972.09296	-770.09351	873.07068	842.48535	-725.84772	823.47552	836.37762	-728.08374	871.21246	766.45050	-1114.31201	847.79919	966.79822	-894.84680	856.61847	977.40985	-1080.30896	688.43805	989.71094	-912.14789	702.03619	999.52625	-1172.42493	825.11993	649.84460	-1157.30347	862.04175	491.00751	-1146.54688	687.91425	319.15262	-1109.24219	570.60760	193.89011	-1058.66235	535.11194	205.72493	-1121.15979	651.33527	74.41203	-841.24609	816.42102	640.83600	-867.93018	826.07037	516.15021	-877.74457	776.42633	251.71472	-930.53302	762.42615	67.72633	-977.34686	724.26630	44.14622	-923.10736	914.75861	34.13857	-1004.90912	748.66504	1710.84949																								 
